<?xml version="1.0" encoding="UTF-8" standalone="no"?>
<!-- Created with Inkscape (http://www.inkscape.org/) -->

<svg>
  <g
     inkscape:label="Layer 1"
     inkscape:groupmode="layer"
     id="layer1">
    <rect
       style="fill:#b32424;fill-opacity:1;stroke:none;stroke-width:12.71490765;stroke-miterlimit:4;stroke-dasharray:none;stroke-opacity:1;paint-order:stroke fill markers"
       id="rect4917-8"
       width="21.115419"
       height="36.919926"
       x="78.752975"
       y="101.46454"
       ry="9.9783545" />
    <rect
       style="fill:#b32424;fill-opacity:1;stroke:none;stroke-width:30.74437332;stroke-miterlimit:4;stroke-dasharray:none;stroke-opacity:1;paint-order:stroke fill markers"
       id="rect4915"
       width="106.2804"
       height="30.322392"
       x="62.165569"
       y="123.19162"
       ry="0" />
    <ellipse
       style="fill:#2a4b8d;fill-opacity:1;stroke:#ffcc33;stroke-width:3.34809947;stroke-miterlimit:4;stroke-dasharray:none;stroke-opacity:0.94117647;paint-order:stroke fill markers"
       id="path4518-3"
       cx="66.935532"
       cy="145.26221"
       rx="14.199841"
       ry="20.458202" />
    <path
       style="fill:#2a4b8d;fill-opacity:1;stroke:#2a4b8d;stroke-width:3.34809947;stroke-miterlimit:4;stroke-dasharray:none;stroke-opacity:1;paint-order:stroke fill markers"
       d="m 27.419363,124.80392 a 14.199841,20.458201 0 0 0 -14.199844,20.45813 14.199841,20.458201 0 0 0 14.199844,20.45858 14.199841,20.458201 0 0 0 1.647951,-0.16392 14.199841,20.458201 0 0 0 1.701211,0.16392 14.199841,20.458201 0 0 0 1.647962,-0.16392 14.199841,20.458201 0 0 0 1.700642,0.16392 14.199841,20.458201 0 0 0 1.647962,-0.16392 14.199841,20.458201 0 0 0 1.701211,0.16392 14.199841,20.458201 0 0 0 1.647962,-0.16392 14.199841,20.458201 0 0 0 1.701201,0.16392 14.199841,20.458201 0 0 0 1.647403,-0.16392 14.199841,20.458201 0 0 0 1.701212,0.16392 14.199841,20.458201 0 0 0 1.64795,-0.16392 14.199841,20.458201 0 0 0 1.701212,0.16392 14.199841,20.458201 0 0 0 1.64795,-0.16392 14.199841,20.458201 0 0 0 1.700654,0.16392 14.199841,20.458201 0 0 0 1.647961,-0.16392 14.199841,20.458201 0 0 0 1.701212,0.16392 14.199841,20.458201 0 0 0 1.647951,-0.16392 14.199841,20.458201 0 0 0 1.701212,0.16392 14.199841,20.458201 0 0 0 1.647961,-0.16392 14.199841,20.458201 0 0 0 1.700643,0.16392 14.199841,20.458201 0 0 0 1.647961,-0.16392 14.199841,20.458201 0 0 0 1.701208,0.16392 14.199841,20.458201 0 0 0 14.199857,-20.45858 14.199841,20.458201 0 0 0 -14.199857,-20.45813 14.199841,20.458201 0 0 0 -1.648516,0.16392 14.199841,20.458201 0 0 0 -1.700653,-0.16392 14.199841,20.458201 0 0 0 -1.64851,0.16392 14.199841,20.458201 0 0 0 -1.700094,-0.16392 14.199841,20.458201 0 0 0 -1.64851,0.16392 14.199841,20.458201 0 0 0 -1.700653,-0.16392 14.199841,20.458201 0 0 0 -1.64852,0.16392 14.199841,20.458201 0 0 0 -1.700653,-0.16392 14.199841,20.458201 0 0 0 -1.647951,0.16392 14.199841,20.458201 0 0 0 -1.700653,-0.16392 14.199841,20.458201 0 0 0 -1.64852,0.16392 14.199841,20.458201 0 0 0 -1.700642,-0.16392 14.199841,20.458201 0 0 0 -1.64852,0.16392 14.199841,20.458201 0 0 0 -1.700095,-0.16392 14.199841,20.458201 0 0 0 -1.648509,0.16392 14.199841,20.458201 0 0 0 -1.700654,-0.16392 14.199841,20.458201 0 0 0 -1.648519,0.16392 14.199841,20.458201 0 0 0 -1.700654,-0.16392 14.199841,20.458201 0 0 0 -1.648508,0.16392 14.199841,20.458201 0 0 0 -1.700096,-0.16392 14.199841,20.458201 0 0 0 -1.648508,0.16392 14.199841,20.458201 0 0 0 -1.700654,-0.16392 z"
       id="path4518-3-6"
       inkscape:connector-curvature="0" />
    <ellipse
       style="fill:#2a4b8d;fill-opacity:1;stroke:#ffcc33;stroke-width:2.91013169;stroke-miterlimit:4;stroke-dasharray:none;stroke-opacity:0.94117647;paint-order:stroke fill markers"
       id="path4518"
       cx="23.6418"
       cy="144.62784"
       rx="10.614196"
       ry="20.677231" />
    <rect
       style="fill:#2a4b8d;fill-opacity:1;stroke:#2a4b8d;stroke-width:0.97925919;stroke-miterlimit:4;stroke-dasharray:none;stroke-opacity:1;paint-order:stroke fill markers"
       id="rect4723"
       width="11.101068"
       height="23.115282"
       x="209.37126"
       y="238.45215"
       transform="matrix(0.99988896,-0.01490169,-0.7063736,0.7078392,0,0)" />
    <rect
       style="fill:#2a4b8d;fill-opacity:1;stroke:#2a4b8d;stroke-width:0.97925931;stroke-miterlimit:4;stroke-dasharray:none;stroke-opacity:1;paint-order:stroke fill markers"
       id="rect4723-9"
       width="11.101068"
       height="23.115284"
       x="222.96768"
       y="238.53281"
       transform="matrix(0.99988896,-0.01490169,-0.7063736,0.7078392,0,0)" />
    <rect
       style="fill:#2a4b8d;fill-opacity:1;stroke:#2a4b8d;stroke-width:0.97925931;stroke-miterlimit:4;stroke-dasharray:none;stroke-opacity:1;paint-order:stroke fill markers"
       id="rect4723-9-3"
       width="11.101068"
       height="23.115284"
       x="195.86082"
       y="238.49324"
       transform="matrix(0.99988896,-0.01490169,-0.7063736,0.7078392,0,0)" />
    <g
       id="g5039"
       transform="matrix(0.83880537,0,0,0.44441521,-61.160514,72.80574)">
      <rect
         transform="matrix(0.99988906,-0.01489544,-0.70652197,0.70769111,0,0)"
         y="301.6962"
         x="364.7847"
         height="27.5516"
         width="13.234378"
         id="rect4723-9-9"
         style="fill:#2a4b8d;fill-opacity:1;stroke:#2a4b8d;stroke-width:1.16732252;stroke-miterlimit:4;stroke-dasharray:none;stroke-opacity:1;paint-order:stroke fill markers" />
      <rect
         transform="matrix(0.99988906,-0.01489544,-0.70652197,0.70769111,0,0)"
         y="302.27771"
         x="392.4129"
         height="27.5516"
         width="13.234378"
         id="rect4723-9-9-0"
         style="fill:#2a4b8d;fill-opacity:1;stroke:#2a4b8d;stroke-width:1.16732252;stroke-miterlimit:4;stroke-dasharray:none;stroke-opacity:1;paint-order:stroke fill markers" />
      <rect
         transform="matrix(0.99988906,-0.01489544,-0.70652197,0.70769111,0,0)"
         y="302.13232"
         x="385.50586"
         height="27.5516"
         width="13.234378"
         id="rect4723-9-9-23"
         style="fill:#2a4b8d;fill-opacity:1;stroke:#2a4b8d;stroke-width:1.16732252;stroke-miterlimit:4;stroke-dasharray:none;stroke-opacity:1;paint-order:stroke fill markers" />
      <rect
         transform="matrix(0.99988906,-0.01489544,-0.70652197,0.70769111,0,0)"
         y="301.98694"
         x="378.59882"
         height="27.5516"
         width="13.234378"
         id="rect4723-9-9-7"
         style="fill:#2a4b8d;fill-opacity:1;stroke:#2a4b8d;stroke-width:1.16732252;stroke-miterlimit:4;stroke-dasharray:none;stroke-opacity:1;paint-order:stroke fill markers" />
      <rect
         transform="matrix(0.99988906,-0.01489544,-0.70652197,0.70769111,0,0)"
         y="301.84155"
         x="371.69174"
         height="27.5516"
         width="13.234378"
         id="rect4723-9-9-5"
         style="fill:#2a4b8d;fill-opacity:1;stroke:#2a4b8d;stroke-width:1.16732252;stroke-miterlimit:4;stroke-dasharray:none;stroke-opacity:1;paint-order:stroke fill markers" />
    </g>
    <rect
       style="fill:#2a4b8d;fill-opacity:1;stroke:none;stroke-width:29.59739113;stroke-miterlimit:4;stroke-dasharray:none;stroke-opacity:1;paint-order:stroke fill markers"
       id="rect4913"
       width="114.45449"
       height="13.004437"
       x="54.435345"
       y="153.06996"
       ry="0" />
    <ellipse
       style="fill:#b32424;fill-opacity:1;stroke:#00af89;stroke-width:11.2993145;stroke-miterlimit:4;stroke-dasharray:none;stroke-opacity:1;paint-order:stroke fill markers"
       id="path4755"
       cx="67.995728"
       cy="174.52296"
       rx="6.5754414"
       ry="6.3798904" />
    <rect
       style="fill:#2a4b8d;fill-opacity:1;stroke:none;stroke-width:34.85591888;stroke-miterlimit:4;stroke-dasharray:none;stroke-opacity:1;paint-order:stroke fill markers"
       id="rect4911"
       width="24.026516"
       height="59.122761"
       x="35.233761"
       y="74.091789"
       ry="9.5834627" />
    <rect
       style="fill:#b32424;fill-opacity:1;stroke:none;stroke-width:29.59739113;stroke-miterlimit:4;stroke-dasharray:none;stroke-opacity:1;paint-order:stroke fill markers"
       id="rect4917"
       width="63.599911"
       height="66.417801"
       x="104.84604"
       y="87.09623"
       ry="6.3436279" />
    <path
       style="fill:#b32424;fill-opacity:1;stroke:#00af89;stroke-width:19.83089066;stroke-miterlimit:4;stroke-dasharray:none;stroke-opacity:1;paint-order:stroke fill markers"
       d="m 112.94784,165.44003 a 11.540249,11.197044 0 0 1 -11.54025,11.19705 11.540249,11.197044 0 0 1 -11.540246,-11.19705 11.540249,11.197044 0 0 1 11.540246,-11.19704 11.540249,11.197044 0 0 1 11.54025,11.19704 z"
       id="path4755-9" />
    <path
       style="fill:#b32424;fill-opacity:1;stroke:#00af89;stroke-width:19.83089066;stroke-miterlimit:4;stroke-dasharray:none;stroke-opacity:1;paint-order:stroke fill markers"
       d="m 155.55095,165.44003 a 11.540249,11.197044 0 0 1 -11.54025,11.19705 11.540249,11.197044 0 0 1 -11.54025,-11.19705 11.540249,11.197044 0 0 1 11.54025,-11.19704 11.540249,11.197044 0 0 1 11.54025,11.19704 z"
       id="path4755-9-2" />
    <rect
       style="fill:#2a4b8d;fill-opacity:1;stroke:none;stroke-width:11.49643421;stroke-miterlimit:4;stroke-dasharray:none;stroke-opacity:1;paint-order:stroke fill markers"
       id="rect4911-9"
       width="31.635679"
       height="4.8847408"
       x="31.325394"
       y="81.006271"
       ry="0" />
    <ellipse
       style="fill:#2a4b8d;fill-opacity:1;stroke:#ffcc33;stroke-width:2.95973921;stroke-miterlimit:4;stroke-dasharray:none;stroke-opacity:0.94117647;paint-order:stroke fill markers"
       id="path4518-7"
       cx="22.920727"
       cy="144.44261"
       rx="2.4799006"
       ry="6.5130777" />
    <rect
       style="fill:#fffffe;fill-opacity:1;stroke:none;stroke-width:2.53734374;stroke-miterlimit:4;stroke-dasharray:none;stroke-opacity:1;paint-order:stroke fill markers"
       id="rect5012"
       width="19.339956"
       height="31.08378"
       x="113.65997"
       y="93.217834"
       ry="10.784168" />
    <rect
       style="fill:#fffffe;fill-opacity:1;stroke:none;stroke-width:2.53734398;stroke-miterlimit:4;stroke-dasharray:none;stroke-opacity:1;paint-order:stroke fill markers"
       id="rect5012-3"
       width="19.339956"
       height="31.08378"
       x="140.29207"
       y="93.217834"
       ry="10.784168" />
    <rect
       style="fill:#ffcc33;fill-opacity:1;stroke:none;stroke-width:2.95973921;stroke-miterlimit:4;stroke-dasharray:none;stroke-opacity:0.94117647;paint-order:stroke fill markers"
       id="rect5041"
       width="46.606125"
       height="6.0264468"
       x="91.951309"
       y="161.38007"
       ry="3.0132234" />
  </g>
</svg>
